<mxfile host="app.diagrams.net" modified="2021-08-20T05:59:56.510Z" agent="5.0 (Windows NT 10.0; Win64; x64) AppleWebKit/537.36 (KHTML, like Gecko) Chrome/92.0.4515.159 Safari/537.36" etag="b0HCUgybXEkTkK7yu7Lp" version="14.9.8" type="github">
  <diagram id="tjPY2HDjKvtOfdVSWDJu" name="Page-1">
    <mxGraphModel dx="1422" dy="746" grid="1" gridSize="10" guides="1" tooltips="1" connect="1" arrows="1" fold="1" page="1" pageScale="1" pageWidth="827" pageHeight="1169" math="0" shadow="1">
      <root>
        <mxCell id="0" />
        <mxCell id="1" parent="0" />
        <mxCell id="ienhqepkz2iXpr1vj2_R-60" style="edgeStyle=orthogonalEdgeStyle;rounded=0;orthogonalLoop=1;jettySize=auto;html=1;exitX=1;exitY=0.5;exitDx=0;exitDy=0;entryX=0;entryY=0.5;entryDx=0;entryDy=0;fontFamily=Comic Sans MS;fontSize=14;startArrow=none;" edge="1" parent="1" source="ienhqepkz2iXpr1vj2_R-61" target="ienhqepkz2iXpr1vj2_R-31">
          <mxGeometry relative="1" as="geometry" />
        </mxCell>
        <mxCell id="ienhqepkz2iXpr1vj2_R-16" value="Base" style="swimlane;fontFamily=Comic Sans MS;fontSize=14;" vertex="1" parent="1">
          <mxGeometry x="120" y="480" width="240" height="570" as="geometry" />
        </mxCell>
        <mxCell id="ienhqepkz2iXpr1vj2_R-17" value="......" style="text;html=1;strokeColor=none;fillColor=none;align=center;verticalAlign=middle;whiteSpace=wrap;rounded=0;fontFamily=Comic Sans MS;fontSize=14;" vertex="1" parent="ienhqepkz2iXpr1vj2_R-16">
          <mxGeometry x="100" y="260" width="40" height="20" as="geometry" />
        </mxCell>
        <mxCell id="ienhqepkz2iXpr1vj2_R-18" value="chapter01" style="shape=table;startSize=30;container=1;collapsible=0;childLayout=tableLayout;fixedRows=1;rowLines=0;fontStyle=1;align=center;pointerEvents=1;fontFamily=Comic Sans MS;fontSize=14;" vertex="1" parent="ienhqepkz2iXpr1vj2_R-16">
          <mxGeometry x="30" y="380" width="180" height="150" as="geometry" />
        </mxCell>
        <mxCell id="ienhqepkz2iXpr1vj2_R-19" value="" style="shape=partialRectangle;html=1;whiteSpace=wrap;collapsible=0;dropTarget=0;pointerEvents=1;fillColor=none;top=0;left=0;bottom=1;right=0;points=[[0,0.5],[1,0.5]];portConstraint=eastwest;" vertex="1" parent="ienhqepkz2iXpr1vj2_R-18">
          <mxGeometry y="30" width="180" height="30" as="geometry" />
        </mxCell>
        <mxCell id="ienhqepkz2iXpr1vj2_R-20" value="chapter_id" style="shape=partialRectangle;html=1;whiteSpace=wrap;connectable=0;fillColor=none;top=0;left=0;bottom=0;right=0;overflow=hidden;pointerEvents=1;" vertex="1" parent="ienhqepkz2iXpr1vj2_R-19">
          <mxGeometry width="120" height="30" as="geometry" />
        </mxCell>
        <mxCell id="ienhqepkz2iXpr1vj2_R-21" value="123" style="shape=partialRectangle;html=1;whiteSpace=wrap;connectable=0;fillColor=none;top=0;left=0;bottom=0;right=0;align=center;spacingLeft=6;overflow=hidden;pointerEvents=1;" vertex="1" parent="ienhqepkz2iXpr1vj2_R-19">
          <mxGeometry x="120" width="60" height="30" as="geometry" />
        </mxCell>
        <mxCell id="ienhqepkz2iXpr1vj2_R-22" value="" style="shape=partialRectangle;html=1;whiteSpace=wrap;collapsible=0;dropTarget=0;pointerEvents=1;fillColor=none;top=0;left=0;bottom=0;right=0;points=[[0,0.5],[1,0.5]];portConstraint=eastwest;" vertex="1" parent="ienhqepkz2iXpr1vj2_R-18">
          <mxGeometry y="60" width="180" height="30" as="geometry" />
        </mxCell>
        <mxCell id="ienhqepkz2iXpr1vj2_R-23" value="...." style="shape=partialRectangle;html=1;whiteSpace=wrap;connectable=0;fillColor=none;top=0;left=0;bottom=0;right=0;overflow=hidden;pointerEvents=1;" vertex="1" parent="ienhqepkz2iXpr1vj2_R-22">
          <mxGeometry width="120" height="30" as="geometry" />
        </mxCell>
        <mxCell id="ienhqepkz2iXpr1vj2_R-24" value="...." style="shape=partialRectangle;html=1;whiteSpace=wrap;connectable=0;fillColor=none;top=0;left=0;bottom=0;right=0;align=center;spacingLeft=6;overflow=hidden;pointerEvents=1;" vertex="1" parent="ienhqepkz2iXpr1vj2_R-22">
          <mxGeometry x="120" width="60" height="30" as="geometry" />
        </mxCell>
        <mxCell id="ienhqepkz2iXpr1vj2_R-25" value="" style="shape=partialRectangle;html=1;whiteSpace=wrap;collapsible=0;dropTarget=0;pointerEvents=1;fillColor=none;top=0;left=0;bottom=0;right=0;points=[[0,0.5],[1,0.5]];portConstraint=eastwest;" vertex="1" parent="ienhqepkz2iXpr1vj2_R-18">
          <mxGeometry y="90" width="180" height="30" as="geometry" />
        </mxCell>
        <mxCell id="ienhqepkz2iXpr1vj2_R-26" value="course_id" style="shape=partialRectangle;html=1;whiteSpace=wrap;connectable=0;fillColor=none;top=0;left=0;bottom=0;right=0;overflow=hidden;pointerEvents=1;" vertex="1" parent="ienhqepkz2iXpr1vj2_R-25">
          <mxGeometry width="120" height="30" as="geometry" />
        </mxCell>
        <mxCell id="ienhqepkz2iXpr1vj2_R-27" value="101" style="shape=partialRectangle;html=1;whiteSpace=wrap;connectable=0;fillColor=none;top=0;left=0;bottom=0;right=0;align=center;spacingLeft=6;overflow=hidden;pointerEvents=1;" vertex="1" parent="ienhqepkz2iXpr1vj2_R-25">
          <mxGeometry x="120" width="60" height="30" as="geometry" />
        </mxCell>
        <mxCell id="ienhqepkz2iXpr1vj2_R-28" value="" style="shape=partialRectangle;html=1;whiteSpace=wrap;collapsible=0;dropTarget=0;pointerEvents=1;fillColor=none;top=0;left=0;bottom=0;right=0;points=[[0,0.5],[1,0.5]];portConstraint=eastwest;" vertex="1" parent="ienhqepkz2iXpr1vj2_R-18">
          <mxGeometry y="120" width="180" height="30" as="geometry" />
        </mxCell>
        <mxCell id="ienhqepkz2iXpr1vj2_R-29" value="chapter_copy_from" style="shape=partialRectangle;html=1;whiteSpace=wrap;connectable=0;fillColor=none;top=0;left=0;bottom=0;right=0;overflow=hidden;pointerEvents=1;" vertex="1" parent="ienhqepkz2iXpr1vj2_R-28">
          <mxGeometry width="120" height="30" as="geometry" />
        </mxCell>
        <mxCell id="ienhqepkz2iXpr1vj2_R-30" value="0" style="shape=partialRectangle;html=1;whiteSpace=wrap;connectable=0;fillColor=none;top=0;left=0;bottom=0;right=0;align=center;spacingLeft=6;overflow=hidden;pointerEvents=1;" vertex="1" parent="ienhqepkz2iXpr1vj2_R-28">
          <mxGeometry x="120" width="60" height="30" as="geometry" />
        </mxCell>
        <mxCell id="ienhqepkz2iXpr1vj2_R-5" value="course01" style="shape=table;startSize=30;container=1;collapsible=0;childLayout=tableLayout;fixedRows=1;rowLines=0;fontStyle=1;align=center;pointerEvents=1;fontFamily=Comic Sans MS;fontSize=14;" vertex="1" parent="ienhqepkz2iXpr1vj2_R-16">
          <mxGeometry x="30" y="60" width="180" height="120" as="geometry" />
        </mxCell>
        <mxCell id="ienhqepkz2iXpr1vj2_R-6" value="" style="shape=partialRectangle;html=1;whiteSpace=wrap;collapsible=0;dropTarget=0;pointerEvents=1;fillColor=none;top=0;left=0;bottom=1;right=0;points=[[0,0.5],[1,0.5]];portConstraint=eastwest;" vertex="1" parent="ienhqepkz2iXpr1vj2_R-5">
          <mxGeometry y="30" width="180" height="30" as="geometry" />
        </mxCell>
        <mxCell id="ienhqepkz2iXpr1vj2_R-7" value="course_id" style="shape=partialRectangle;html=1;whiteSpace=wrap;connectable=0;fillColor=none;top=0;left=0;bottom=0;right=0;overflow=hidden;pointerEvents=1;" vertex="1" parent="ienhqepkz2iXpr1vj2_R-6">
          <mxGeometry width="120" height="30" as="geometry" />
        </mxCell>
        <mxCell id="ienhqepkz2iXpr1vj2_R-8" value="101" style="shape=partialRectangle;html=1;whiteSpace=wrap;connectable=0;fillColor=none;top=0;left=0;bottom=0;right=0;align=center;spacingLeft=6;overflow=hidden;pointerEvents=1;" vertex="1" parent="ienhqepkz2iXpr1vj2_R-6">
          <mxGeometry x="120" width="60" height="30" as="geometry" />
        </mxCell>
        <mxCell id="ienhqepkz2iXpr1vj2_R-9" value="" style="shape=partialRectangle;html=1;whiteSpace=wrap;collapsible=0;dropTarget=0;pointerEvents=1;fillColor=none;top=0;left=0;bottom=0;right=0;points=[[0,0.5],[1,0.5]];portConstraint=eastwest;" vertex="1" parent="ienhqepkz2iXpr1vj2_R-5">
          <mxGeometry y="60" width="180" height="30" as="geometry" />
        </mxCell>
        <mxCell id="ienhqepkz2iXpr1vj2_R-10" value="...." style="shape=partialRectangle;html=1;whiteSpace=wrap;connectable=0;fillColor=none;top=0;left=0;bottom=0;right=0;overflow=hidden;pointerEvents=1;" vertex="1" parent="ienhqepkz2iXpr1vj2_R-9">
          <mxGeometry width="120" height="30" as="geometry" />
        </mxCell>
        <mxCell id="ienhqepkz2iXpr1vj2_R-11" value="...." style="shape=partialRectangle;html=1;whiteSpace=wrap;connectable=0;fillColor=none;top=0;left=0;bottom=0;right=0;align=center;spacingLeft=6;overflow=hidden;pointerEvents=1;" vertex="1" parent="ienhqepkz2iXpr1vj2_R-9">
          <mxGeometry x="120" width="60" height="30" as="geometry" />
        </mxCell>
        <mxCell id="ienhqepkz2iXpr1vj2_R-12" value="" style="shape=partialRectangle;html=1;whiteSpace=wrap;collapsible=0;dropTarget=0;pointerEvents=1;fillColor=none;top=0;left=0;bottom=0;right=0;points=[[0,0.5],[1,0.5]];portConstraint=eastwest;" vertex="1" parent="ienhqepkz2iXpr1vj2_R-5">
          <mxGeometry y="90" width="180" height="30" as="geometry" />
        </mxCell>
        <mxCell id="ienhqepkz2iXpr1vj2_R-13" value="course_copy_from" style="shape=partialRectangle;html=1;whiteSpace=wrap;connectable=0;fillColor=none;top=0;left=0;bottom=0;right=0;overflow=hidden;pointerEvents=1;" vertex="1" parent="ienhqepkz2iXpr1vj2_R-12">
          <mxGeometry width="120" height="30" as="geometry" />
        </mxCell>
        <mxCell id="ienhqepkz2iXpr1vj2_R-14" value="0" style="shape=partialRectangle;html=1;whiteSpace=wrap;connectable=0;fillColor=none;top=0;left=0;bottom=0;right=0;align=center;spacingLeft=6;overflow=hidden;pointerEvents=1;" vertex="1" parent="ienhqepkz2iXpr1vj2_R-12">
          <mxGeometry x="120" width="60" height="30" as="geometry" />
        </mxCell>
        <mxCell id="ienhqepkz2iXpr1vj2_R-59" style="edgeStyle=orthogonalEdgeStyle;rounded=0;orthogonalLoop=1;jettySize=auto;html=1;exitX=0;exitY=0.5;exitDx=0;exitDy=0;entryX=0;entryY=0.5;entryDx=0;entryDy=0;fontFamily=Comic Sans MS;fontSize=14;" edge="1" parent="ienhqepkz2iXpr1vj2_R-16" source="ienhqepkz2iXpr1vj2_R-6" target="ienhqepkz2iXpr1vj2_R-25">
          <mxGeometry relative="1" as="geometry" />
        </mxCell>
        <mxCell id="ienhqepkz2iXpr1vj2_R-31" value="Copy" style="swimlane;fontFamily=Comic Sans MS;fontSize=14;" vertex="1" parent="1">
          <mxGeometry x="520" y="480" width="240" height="570" as="geometry" />
        </mxCell>
        <mxCell id="ienhqepkz2iXpr1vj2_R-32" value="......" style="text;html=1;strokeColor=none;fillColor=none;align=center;verticalAlign=middle;whiteSpace=wrap;rounded=0;fontFamily=Comic Sans MS;fontSize=14;" vertex="1" parent="ienhqepkz2iXpr1vj2_R-31">
          <mxGeometry x="100" y="260" width="40" height="20" as="geometry" />
        </mxCell>
        <mxCell id="ienhqepkz2iXpr1vj2_R-33" value="chapter01_1" style="shape=table;startSize=30;container=1;collapsible=0;childLayout=tableLayout;fixedRows=1;rowLines=0;fontStyle=1;align=center;pointerEvents=1;fontFamily=Comic Sans MS;fontSize=14;" vertex="1" parent="ienhqepkz2iXpr1vj2_R-31">
          <mxGeometry x="30" y="380" width="180" height="150" as="geometry" />
        </mxCell>
        <mxCell id="ienhqepkz2iXpr1vj2_R-34" value="" style="shape=partialRectangle;html=1;whiteSpace=wrap;collapsible=0;dropTarget=0;pointerEvents=1;fillColor=none;top=0;left=0;bottom=1;right=0;points=[[0,0.5],[1,0.5]];portConstraint=eastwest;" vertex="1" parent="ienhqepkz2iXpr1vj2_R-33">
          <mxGeometry y="30" width="180" height="30" as="geometry" />
        </mxCell>
        <mxCell id="ienhqepkz2iXpr1vj2_R-35" value="chapter_id" style="shape=partialRectangle;html=1;whiteSpace=wrap;connectable=0;fillColor=none;top=0;left=0;bottom=0;right=0;overflow=hidden;pointerEvents=1;" vertex="1" parent="ienhqepkz2iXpr1vj2_R-34">
          <mxGeometry width="120" height="30" as="geometry" />
        </mxCell>
        <mxCell id="ienhqepkz2iXpr1vj2_R-36" value="138" style="shape=partialRectangle;html=1;whiteSpace=wrap;connectable=0;fillColor=none;top=0;left=0;bottom=0;right=0;align=center;spacingLeft=6;overflow=hidden;pointerEvents=1;" vertex="1" parent="ienhqepkz2iXpr1vj2_R-34">
          <mxGeometry x="120" width="60" height="30" as="geometry" />
        </mxCell>
        <mxCell id="ienhqepkz2iXpr1vj2_R-37" value="" style="shape=partialRectangle;html=1;whiteSpace=wrap;collapsible=0;dropTarget=0;pointerEvents=1;fillColor=none;top=0;left=0;bottom=0;right=0;points=[[0,0.5],[1,0.5]];portConstraint=eastwest;" vertex="1" parent="ienhqepkz2iXpr1vj2_R-33">
          <mxGeometry y="60" width="180" height="30" as="geometry" />
        </mxCell>
        <mxCell id="ienhqepkz2iXpr1vj2_R-38" value="...." style="shape=partialRectangle;html=1;whiteSpace=wrap;connectable=0;fillColor=none;top=0;left=0;bottom=0;right=0;overflow=hidden;pointerEvents=1;" vertex="1" parent="ienhqepkz2iXpr1vj2_R-37">
          <mxGeometry width="120" height="30" as="geometry" />
        </mxCell>
        <mxCell id="ienhqepkz2iXpr1vj2_R-39" value="...." style="shape=partialRectangle;html=1;whiteSpace=wrap;connectable=0;fillColor=none;top=0;left=0;bottom=0;right=0;align=center;spacingLeft=6;overflow=hidden;pointerEvents=1;" vertex="1" parent="ienhqepkz2iXpr1vj2_R-37">
          <mxGeometry x="120" width="60" height="30" as="geometry" />
        </mxCell>
        <mxCell id="ienhqepkz2iXpr1vj2_R-40" value="" style="shape=partialRectangle;html=1;whiteSpace=wrap;collapsible=0;dropTarget=0;pointerEvents=1;fillColor=none;top=0;left=0;bottom=0;right=0;points=[[0,0.5],[1,0.5]];portConstraint=eastwest;" vertex="1" parent="ienhqepkz2iXpr1vj2_R-33">
          <mxGeometry y="90" width="180" height="30" as="geometry" />
        </mxCell>
        <mxCell id="ienhqepkz2iXpr1vj2_R-41" value="course_id" style="shape=partialRectangle;html=1;whiteSpace=wrap;connectable=0;fillColor=none;top=0;left=0;bottom=0;right=0;overflow=hidden;pointerEvents=1;" vertex="1" parent="ienhqepkz2iXpr1vj2_R-40">
          <mxGeometry width="120" height="30" as="geometry" />
        </mxCell>
        <mxCell id="ienhqepkz2iXpr1vj2_R-42" value="109" style="shape=partialRectangle;html=1;whiteSpace=wrap;connectable=0;fillColor=none;top=0;left=0;bottom=0;right=0;align=center;spacingLeft=6;overflow=hidden;pointerEvents=1;" vertex="1" parent="ienhqepkz2iXpr1vj2_R-40">
          <mxGeometry x="120" width="60" height="30" as="geometry" />
        </mxCell>
        <mxCell id="ienhqepkz2iXpr1vj2_R-43" value="" style="shape=partialRectangle;html=1;whiteSpace=wrap;collapsible=0;dropTarget=0;pointerEvents=1;fillColor=none;top=0;left=0;bottom=0;right=0;points=[[0,0.5],[1,0.5]];portConstraint=eastwest;" vertex="1" parent="ienhqepkz2iXpr1vj2_R-33">
          <mxGeometry y="120" width="180" height="30" as="geometry" />
        </mxCell>
        <mxCell id="ienhqepkz2iXpr1vj2_R-44" value="chapter_copy_from" style="shape=partialRectangle;html=1;whiteSpace=wrap;connectable=0;fillColor=none;top=0;left=0;bottom=0;right=0;overflow=hidden;pointerEvents=1;" vertex="1" parent="ienhqepkz2iXpr1vj2_R-43">
          <mxGeometry width="120" height="30" as="geometry" />
        </mxCell>
        <mxCell id="ienhqepkz2iXpr1vj2_R-45" value="123" style="shape=partialRectangle;html=1;whiteSpace=wrap;connectable=0;fillColor=none;top=0;left=0;bottom=0;right=0;align=center;spacingLeft=6;overflow=hidden;pointerEvents=1;" vertex="1" parent="ienhqepkz2iXpr1vj2_R-43">
          <mxGeometry x="120" width="60" height="30" as="geometry" />
        </mxCell>
        <mxCell id="ienhqepkz2iXpr1vj2_R-46" value="course01_1" style="shape=table;startSize=30;container=1;collapsible=0;childLayout=tableLayout;fixedRows=1;rowLines=0;fontStyle=1;align=center;pointerEvents=1;fontFamily=Comic Sans MS;fontSize=14;" vertex="1" parent="ienhqepkz2iXpr1vj2_R-31">
          <mxGeometry x="30" y="60" width="180" height="120" as="geometry" />
        </mxCell>
        <mxCell id="ienhqepkz2iXpr1vj2_R-47" value="" style="shape=partialRectangle;html=1;whiteSpace=wrap;collapsible=0;dropTarget=0;pointerEvents=1;fillColor=none;top=0;left=0;bottom=1;right=0;points=[[0,0.5],[1,0.5]];portConstraint=eastwest;" vertex="1" parent="ienhqepkz2iXpr1vj2_R-46">
          <mxGeometry y="30" width="180" height="30" as="geometry" />
        </mxCell>
        <mxCell id="ienhqepkz2iXpr1vj2_R-48" value="course_id" style="shape=partialRectangle;html=1;whiteSpace=wrap;connectable=0;fillColor=none;top=0;left=0;bottom=0;right=0;overflow=hidden;pointerEvents=1;" vertex="1" parent="ienhqepkz2iXpr1vj2_R-47">
          <mxGeometry width="120" height="30" as="geometry" />
        </mxCell>
        <mxCell id="ienhqepkz2iXpr1vj2_R-49" value="109" style="shape=partialRectangle;html=1;whiteSpace=wrap;connectable=0;fillColor=none;top=0;left=0;bottom=0;right=0;align=center;spacingLeft=6;overflow=hidden;pointerEvents=1;" vertex="1" parent="ienhqepkz2iXpr1vj2_R-47">
          <mxGeometry x="120" width="60" height="30" as="geometry" />
        </mxCell>
        <mxCell id="ienhqepkz2iXpr1vj2_R-50" value="" style="shape=partialRectangle;html=1;whiteSpace=wrap;collapsible=0;dropTarget=0;pointerEvents=1;fillColor=none;top=0;left=0;bottom=0;right=0;points=[[0,0.5],[1,0.5]];portConstraint=eastwest;" vertex="1" parent="ienhqepkz2iXpr1vj2_R-46">
          <mxGeometry y="60" width="180" height="30" as="geometry" />
        </mxCell>
        <mxCell id="ienhqepkz2iXpr1vj2_R-51" value="...." style="shape=partialRectangle;html=1;whiteSpace=wrap;connectable=0;fillColor=none;top=0;left=0;bottom=0;right=0;overflow=hidden;pointerEvents=1;" vertex="1" parent="ienhqepkz2iXpr1vj2_R-50">
          <mxGeometry width="120" height="30" as="geometry" />
        </mxCell>
        <mxCell id="ienhqepkz2iXpr1vj2_R-52" value="...." style="shape=partialRectangle;html=1;whiteSpace=wrap;connectable=0;fillColor=none;top=0;left=0;bottom=0;right=0;align=center;spacingLeft=6;overflow=hidden;pointerEvents=1;" vertex="1" parent="ienhqepkz2iXpr1vj2_R-50">
          <mxGeometry x="120" width="60" height="30" as="geometry" />
        </mxCell>
        <mxCell id="ienhqepkz2iXpr1vj2_R-53" value="" style="shape=partialRectangle;html=1;whiteSpace=wrap;collapsible=0;dropTarget=0;pointerEvents=1;fillColor=none;top=0;left=0;bottom=0;right=0;points=[[0,0.5],[1,0.5]];portConstraint=eastwest;" vertex="1" parent="ienhqepkz2iXpr1vj2_R-46">
          <mxGeometry y="90" width="180" height="30" as="geometry" />
        </mxCell>
        <mxCell id="ienhqepkz2iXpr1vj2_R-54" value="course_copy_from" style="shape=partialRectangle;html=1;whiteSpace=wrap;connectable=0;fillColor=none;top=0;left=0;bottom=0;right=0;overflow=hidden;pointerEvents=1;" vertex="1" parent="ienhqepkz2iXpr1vj2_R-53">
          <mxGeometry width="120" height="30" as="geometry" />
        </mxCell>
        <mxCell id="ienhqepkz2iXpr1vj2_R-55" value="101" style="shape=partialRectangle;html=1;whiteSpace=wrap;connectable=0;fillColor=none;top=0;left=0;bottom=0;right=0;align=center;spacingLeft=6;overflow=hidden;pointerEvents=1;" vertex="1" parent="ienhqepkz2iXpr1vj2_R-53">
          <mxGeometry x="120" width="60" height="30" as="geometry" />
        </mxCell>
        <mxCell id="ienhqepkz2iXpr1vj2_R-57" style="edgeStyle=orthogonalEdgeStyle;rounded=0;orthogonalLoop=1;jettySize=auto;html=1;exitX=1;exitY=0.5;exitDx=0;exitDy=0;entryX=1;entryY=0.5;entryDx=0;entryDy=0;fontFamily=Comic Sans MS;fontSize=14;" edge="1" parent="ienhqepkz2iXpr1vj2_R-31" source="ienhqepkz2iXpr1vj2_R-47" target="ienhqepkz2iXpr1vj2_R-40">
          <mxGeometry relative="1" as="geometry" />
        </mxCell>
        <mxCell id="ienhqepkz2iXpr1vj2_R-56" style="edgeStyle=orthogonalEdgeStyle;rounded=0;orthogonalLoop=1;jettySize=auto;html=1;exitX=1;exitY=0.5;exitDx=0;exitDy=0;fontFamily=Comic Sans MS;fontSize=14;" edge="1" parent="1" source="ienhqepkz2iXpr1vj2_R-6" target="ienhqepkz2iXpr1vj2_R-53">
          <mxGeometry relative="1" as="geometry" />
        </mxCell>
        <mxCell id="ienhqepkz2iXpr1vj2_R-58" style="edgeStyle=orthogonalEdgeStyle;rounded=0;orthogonalLoop=1;jettySize=auto;html=1;exitX=1;exitY=0.5;exitDx=0;exitDy=0;entryX=0;entryY=0.5;entryDx=0;entryDy=0;fontFamily=Comic Sans MS;fontSize=14;" edge="1" parent="1" source="ienhqepkz2iXpr1vj2_R-19" target="ienhqepkz2iXpr1vj2_R-43">
          <mxGeometry relative="1" as="geometry" />
        </mxCell>
        <mxCell id="ienhqepkz2iXpr1vj2_R-61" value="&lt;font style=&quot;font-size: 16px&quot;&gt;&lt;b&gt;复制&lt;/b&gt;&lt;/font&gt;" style="text;html=1;strokeColor=none;fillColor=none;align=center;verticalAlign=middle;whiteSpace=wrap;rounded=0;fontFamily=Comic Sans MS;fontSize=14;" vertex="1" parent="1">
          <mxGeometry x="420" y="755" width="40" height="20" as="geometry" />
        </mxCell>
        <mxCell id="ienhqepkz2iXpr1vj2_R-62" value="" style="edgeStyle=orthogonalEdgeStyle;rounded=0;orthogonalLoop=1;jettySize=auto;html=1;exitX=1;exitY=0.5;exitDx=0;exitDy=0;entryX=0;entryY=0.5;entryDx=0;entryDy=0;fontFamily=Comic Sans MS;fontSize=14;endArrow=none;" edge="1" parent="1" source="ienhqepkz2iXpr1vj2_R-16" target="ienhqepkz2iXpr1vj2_R-61">
          <mxGeometry relative="1" as="geometry">
            <mxPoint x="360" y="765" as="sourcePoint" />
            <mxPoint x="520" y="765" as="targetPoint" />
          </mxGeometry>
        </mxCell>
        <mxCell id="ienhqepkz2iXpr1vj2_R-67" style="edgeStyle=orthogonalEdgeStyle;rounded=0;orthogonalLoop=1;jettySize=auto;html=1;exitX=0.5;exitY=1;exitDx=0;exitDy=0;exitPerimeter=0;entryX=0.5;entryY=0;entryDx=0;entryDy=0;fontFamily=Comic Sans MS;fontSize=14;" edge="1" parent="1" source="ienhqepkz2iXpr1vj2_R-63">
          <mxGeometry relative="1" as="geometry">
            <mxPoint x="370.5" y="1280" as="targetPoint" />
          </mxGeometry>
        </mxCell>
        <mxCell id="ienhqepkz2iXpr1vj2_R-63" value="开始" style="strokeWidth=2;html=1;shape=mxgraph.flowchart.terminator;whiteSpace=wrap;fontFamily=Comic Sans MS;fontSize=14;" vertex="1" parent="1">
          <mxGeometry x="320.5" y="1200" width="100" height="50" as="geometry" />
        </mxCell>
        <mxCell id="ienhqepkz2iXpr1vj2_R-102" style="edgeStyle=orthogonalEdgeStyle;rounded=0;orthogonalLoop=1;jettySize=auto;html=1;exitX=0.5;exitY=1;exitDx=0;exitDy=0;fontFamily=Comic Sans MS;fontSize=14;" edge="1" parent="1" source="ienhqepkz2iXpr1vj2_R-65" target="ienhqepkz2iXpr1vj2_R-68">
          <mxGeometry relative="1" as="geometry" />
        </mxCell>
        <mxCell id="ienhqepkz2iXpr1vj2_R-109" style="edgeStyle=orthogonalEdgeStyle;rounded=0;orthogonalLoop=1;jettySize=auto;html=1;exitX=0.75;exitY=1;exitDx=0;exitDy=0;entryX=1;entryY=0.5;entryDx=0;entryDy=0;fontFamily=Comic Sans MS;fontSize=14;" edge="1" parent="1" source="ienhqepkz2iXpr1vj2_R-65" target="ienhqepkz2iXpr1vj2_R-71">
          <mxGeometry relative="1" as="geometry" />
        </mxCell>
        <mxCell id="ienhqepkz2iXpr1vj2_R-110" value="insert success" style="edgeLabel;html=1;align=center;verticalAlign=middle;resizable=0;points=[];fontSize=14;fontFamily=Comic Sans MS;" vertex="1" connectable="0" parent="ienhqepkz2iXpr1vj2_R-109">
          <mxGeometry x="0.5388" relative="1" as="geometry">
            <mxPoint as="offset" />
          </mxGeometry>
        </mxCell>
        <mxCell id="ienhqepkz2iXpr1vj2_R-65" value="shixun_course_chapter" style="shape=process;whiteSpace=wrap;html=1;backgroundOutline=1;fontFamily=Comic Sans MS;fontSize=14;" vertex="1" parent="1">
          <mxGeometry x="460" y="1360" width="200" height="60" as="geometry" />
        </mxCell>
        <mxCell id="ienhqepkz2iXpr1vj2_R-72" style="edgeStyle=orthogonalEdgeStyle;rounded=0;orthogonalLoop=1;jettySize=auto;html=1;exitX=0.5;exitY=1;exitDx=0;exitDy=0;entryX=0.5;entryY=0;entryDx=0;entryDy=0;fontFamily=Comic Sans MS;fontSize=14;" edge="1" parent="1" source="ienhqepkz2iXpr1vj2_R-68" target="ienhqepkz2iXpr1vj2_R-71">
          <mxGeometry relative="1" as="geometry" />
        </mxCell>
        <mxCell id="ienhqepkz2iXpr1vj2_R-68" value="chapter记录列表chapterList" style="rounded=0;whiteSpace=wrap;html=1;fontFamily=Comic Sans MS;fontSize=14;" vertex="1" parent="1">
          <mxGeometry x="475" y="1620" width="170" height="50" as="geometry" />
        </mxCell>
        <mxCell id="ienhqepkz2iXpr1vj2_R-106" style="edgeStyle=orthogonalEdgeStyle;rounded=0;orthogonalLoop=1;jettySize=auto;html=1;exitX=0.5;exitY=1;exitDx=0;exitDy=0;fontFamily=Comic Sans MS;fontSize=14;" edge="1" parent="1" source="ienhqepkz2iXpr1vj2_R-71" target="ienhqepkz2iXpr1vj2_R-105">
          <mxGeometry relative="1" as="geometry" />
        </mxCell>
        <mxCell id="ienhqepkz2iXpr1vj2_R-71" value="chapter in chapterList" style="rhombus;whiteSpace=wrap;html=1;fontFamily=Comic Sans MS;fontSize=14;" vertex="1" parent="1">
          <mxGeometry x="366" y="1750" width="205" height="60" as="geometry" />
        </mxCell>
        <mxCell id="ienhqepkz2iXpr1vj2_R-100" style="edgeStyle=orthogonalEdgeStyle;rounded=0;orthogonalLoop=1;jettySize=auto;html=1;exitX=0.25;exitY=1;exitDx=0;exitDy=0;entryX=0;entryY=0.5;entryDx=0;entryDy=0;fontFamily=Comic Sans MS;fontSize=14;" edge="1" parent="1" source="ienhqepkz2iXpr1vj2_R-74" target="ienhqepkz2iXpr1vj2_R-98">
          <mxGeometry relative="1" as="geometry" />
        </mxCell>
        <mxCell id="ienhqepkz2iXpr1vj2_R-101" value="insert success" style="edgeLabel;html=1;align=center;verticalAlign=middle;resizable=0;points=[];fontSize=14;fontFamily=Comic Sans MS;" vertex="1" connectable="0" parent="ienhqepkz2iXpr1vj2_R-100">
          <mxGeometry x="-0.1585" relative="1" as="geometry">
            <mxPoint as="offset" />
          </mxGeometry>
        </mxCell>
        <mxCell id="ienhqepkz2iXpr1vj2_R-74" value="shixun_course" style="shape=process;whiteSpace=wrap;html=1;backgroundOutline=1;fontFamily=Comic Sans MS;fontSize=14;" vertex="1" parent="1">
          <mxGeometry x="120" y="1360" width="160" height="60" as="geometry" />
        </mxCell>
        <mxCell id="ienhqepkz2iXpr1vj2_R-87" style="edgeStyle=orthogonalEdgeStyle;rounded=0;orthogonalLoop=1;jettySize=auto;html=1;exitX=0.5;exitY=1;exitDx=0;exitDy=0;entryX=0.5;entryY=0;entryDx=0;entryDy=0;fontFamily=Comic Sans MS;fontSize=14;" edge="1" parent="1" source="ienhqepkz2iXpr1vj2_R-76" target="ienhqepkz2iXpr1vj2_R-85">
          <mxGeometry relative="1" as="geometry" />
        </mxCell>
        <mxCell id="ienhqepkz2iXpr1vj2_R-104" style="edgeStyle=orthogonalEdgeStyle;rounded=0;orthogonalLoop=1;jettySize=auto;html=1;exitX=1;exitY=0.5;exitDx=0;exitDy=0;entryX=0.5;entryY=0;entryDx=0;entryDy=0;fontFamily=Comic Sans MS;fontSize=14;" edge="1" parent="1" source="ienhqepkz2iXpr1vj2_R-76" target="ienhqepkz2iXpr1vj2_R-71">
          <mxGeometry relative="1" as="geometry" />
        </mxCell>
        <mxCell id="ienhqepkz2iXpr1vj2_R-76" value="开启事务tx" style="rounded=0;whiteSpace=wrap;html=1;fontFamily=Comic Sans MS;fontSize=14;" vertex="1" parent="1">
          <mxGeometry x="310.5" y="1420" width="120" height="50" as="geometry" />
        </mxCell>
        <mxCell id="ienhqepkz2iXpr1vj2_R-80" style="edgeStyle=orthogonalEdgeStyle;rounded=0;orthogonalLoop=1;jettySize=auto;html=1;exitX=0.75;exitY=1;exitDx=0;exitDy=0;entryX=0;entryY=0.5;entryDx=0;entryDy=0;fontFamily=Comic Sans MS;fontSize=14;" edge="1" parent="1" source="ienhqepkz2iXpr1vj2_R-77" target="ienhqepkz2iXpr1vj2_R-65">
          <mxGeometry relative="1" as="geometry" />
        </mxCell>
        <mxCell id="ienhqepkz2iXpr1vj2_R-97" value="search" style="edgeLabel;html=1;align=center;verticalAlign=middle;resizable=0;points=[];fontSize=14;fontFamily=Comic Sans MS;" vertex="1" connectable="0" parent="ienhqepkz2iXpr1vj2_R-80">
          <mxGeometry x="0.1621" y="-2" relative="1" as="geometry">
            <mxPoint as="offset" />
          </mxGeometry>
        </mxCell>
        <mxCell id="ienhqepkz2iXpr1vj2_R-81" style="edgeStyle=orthogonalEdgeStyle;rounded=0;orthogonalLoop=1;jettySize=auto;html=1;exitX=0.25;exitY=1;exitDx=0;exitDy=0;entryX=1;entryY=0.5;entryDx=0;entryDy=0;fontFamily=Comic Sans MS;fontSize=14;" edge="1" parent="1" source="ienhqepkz2iXpr1vj2_R-77" target="ienhqepkz2iXpr1vj2_R-74">
          <mxGeometry relative="1" as="geometry" />
        </mxCell>
        <mxCell id="ienhqepkz2iXpr1vj2_R-94" value="search" style="edgeLabel;html=1;align=center;verticalAlign=middle;resizable=0;points=[];fontSize=14;fontFamily=Comic Sans MS;" vertex="1" connectable="0" parent="ienhqepkz2iXpr1vj2_R-81">
          <mxGeometry x="0.1504" y="-2" relative="1" as="geometry">
            <mxPoint as="offset" />
          </mxGeometry>
        </mxCell>
        <mxCell id="ienhqepkz2iXpr1vj2_R-82" style="edgeStyle=orthogonalEdgeStyle;rounded=0;orthogonalLoop=1;jettySize=auto;html=1;exitX=0.5;exitY=1;exitDx=0;exitDy=0;entryX=0.5;entryY=0;entryDx=0;entryDy=0;fontFamily=Comic Sans MS;fontSize=14;" edge="1" parent="1" source="ienhqepkz2iXpr1vj2_R-77" target="ienhqepkz2iXpr1vj2_R-76">
          <mxGeometry relative="1" as="geometry" />
        </mxCell>
        <mxCell id="ienhqepkz2iXpr1vj2_R-77" value="&lt;span&gt;根据course_id查询课程信息&lt;br&gt;和章节信息&lt;/span&gt;" style="shape=parallelogram;perimeter=parallelogramPerimeter;whiteSpace=wrap;html=1;fixedSize=1;fontFamily=Comic Sans MS;fontSize=14;" vertex="1" parent="1">
          <mxGeometry x="267.75" y="1280" width="205.5" height="50" as="geometry" />
        </mxCell>
        <mxCell id="ienhqepkz2iXpr1vj2_R-89" style="edgeStyle=orthogonalEdgeStyle;rounded=0;orthogonalLoop=1;jettySize=auto;html=1;exitX=0;exitY=0.5;exitDx=0;exitDy=0;entryX=0.5;entryY=1;entryDx=0;entryDy=0;fontFamily=Comic Sans MS;fontSize=14;" edge="1" parent="1" source="ienhqepkz2iXpr1vj2_R-85" target="ienhqepkz2iXpr1vj2_R-74">
          <mxGeometry relative="1" as="geometry" />
        </mxCell>
        <mxCell id="ienhqepkz2iXpr1vj2_R-93" value="insert" style="edgeLabel;html=1;align=center;verticalAlign=middle;resizable=0;points=[];fontSize=14;fontFamily=Comic Sans MS;" vertex="1" connectable="0" parent="ienhqepkz2iXpr1vj2_R-89">
          <mxGeometry x="0.0769" y="-2" relative="1" as="geometry">
            <mxPoint as="offset" />
          </mxGeometry>
        </mxCell>
        <mxCell id="ienhqepkz2iXpr1vj2_R-85" value="复制基础课基本信息，插入衍生课：course_copy_from: course_id" style="rounded=0;whiteSpace=wrap;html=1;fontFamily=Comic Sans MS;fontSize=14;" vertex="1" parent="1">
          <mxGeometry x="250.5" y="1520" width="240" height="50" as="geometry" />
        </mxCell>
        <mxCell id="ienhqepkz2iXpr1vj2_R-103" style="edgeStyle=orthogonalEdgeStyle;rounded=0;orthogonalLoop=1;jettySize=auto;html=1;exitX=0.5;exitY=1;exitDx=0;exitDy=0;entryX=0.5;entryY=0;entryDx=0;entryDy=0;fontFamily=Comic Sans MS;fontSize=14;" edge="1" parent="1" source="ienhqepkz2iXpr1vj2_R-98" target="ienhqepkz2iXpr1vj2_R-71">
          <mxGeometry relative="1" as="geometry" />
        </mxCell>
        <mxCell id="ienhqepkz2iXpr1vj2_R-98" value="衍生课course_id" style="rounded=0;whiteSpace=wrap;html=1;fontFamily=Comic Sans MS;fontSize=14;" vertex="1" parent="1">
          <mxGeometry x="310.5" y="1620" width="120" height="50" as="geometry" />
        </mxCell>
        <mxCell id="ienhqepkz2iXpr1vj2_R-107" style="edgeStyle=orthogonalEdgeStyle;rounded=0;orthogonalLoop=1;jettySize=auto;html=1;exitX=1;exitY=0.5;exitDx=0;exitDy=0;entryX=1;entryY=0.5;entryDx=0;entryDy=0;fontFamily=Comic Sans MS;fontSize=14;" edge="1" parent="1" source="ienhqepkz2iXpr1vj2_R-105" target="ienhqepkz2iXpr1vj2_R-65">
          <mxGeometry relative="1" as="geometry" />
        </mxCell>
        <mxCell id="ienhqepkz2iXpr1vj2_R-108" value="insert" style="edgeLabel;html=1;align=center;verticalAlign=middle;resizable=0;points=[];fontSize=14;fontFamily=Comic Sans MS;" vertex="1" connectable="0" parent="ienhqepkz2iXpr1vj2_R-107">
          <mxGeometry x="-0.4116" y="1" relative="1" as="geometry">
            <mxPoint as="offset" />
          </mxGeometry>
        </mxCell>
        <mxCell id="ienhqepkz2iXpr1vj2_R-119" style="edgeStyle=orthogonalEdgeStyle;rounded=0;orthogonalLoop=1;jettySize=auto;html=1;exitX=0.5;exitY=1;exitDx=0;exitDy=0;fontFamily=Comic Sans MS;fontSize=14;" edge="1" parent="1" source="ienhqepkz2iXpr1vj2_R-105" target="ienhqepkz2iXpr1vj2_R-114">
          <mxGeometry relative="1" as="geometry" />
        </mxCell>
        <mxCell id="ienhqepkz2iXpr1vj2_R-105" value="复制 chapter基础信息&lt;br&gt;course_id: 衍生课course_id&lt;br&gt;chapter_copy_from: 原始chapter_id" style="rounded=0;whiteSpace=wrap;html=1;fontFamily=Comic Sans MS;fontSize=14;" vertex="1" parent="1">
          <mxGeometry x="333.5" y="1860" width="270" height="60" as="geometry" />
        </mxCell>
        <mxCell id="ienhqepkz2iXpr1vj2_R-121" style="edgeStyle=orthogonalEdgeStyle;rounded=0;orthogonalLoop=1;jettySize=auto;html=1;exitX=0.5;exitY=1;exitDx=0;exitDy=0;fontFamily=Comic Sans MS;fontSize=14;" edge="1" parent="1" source="ienhqepkz2iXpr1vj2_R-112" target="ienhqepkz2iXpr1vj2_R-113">
          <mxGeometry relative="1" as="geometry" />
        </mxCell>
        <mxCell id="ienhqepkz2iXpr1vj2_R-112" value="提交事务tx.commit()" style="rounded=0;whiteSpace=wrap;html=1;fontFamily=Comic Sans MS;fontSize=14;" vertex="1" parent="1">
          <mxGeometry x="409" y="2060" width="120" height="50" as="geometry" />
        </mxCell>
        <mxCell id="ienhqepkz2iXpr1vj2_R-113" value="结束" style="strokeWidth=2;html=1;shape=mxgraph.flowchart.terminator;whiteSpace=wrap;fontFamily=Comic Sans MS;fontSize=14;" vertex="1" parent="1">
          <mxGeometry x="418.5" y="2160" width="100" height="50" as="geometry" />
        </mxCell>
        <mxCell id="ienhqepkz2iXpr1vj2_R-116" style="edgeStyle=orthogonalEdgeStyle;rounded=0;orthogonalLoop=1;jettySize=auto;html=1;exitX=0;exitY=0.5;exitDx=0;exitDy=0;fontFamily=Comic Sans MS;fontSize=14;" edge="1" parent="1" source="ienhqepkz2iXpr1vj2_R-114" target="ienhqepkz2iXpr1vj2_R-115">
          <mxGeometry relative="1" as="geometry" />
        </mxCell>
        <mxCell id="ienhqepkz2iXpr1vj2_R-117" value="insert" style="edgeLabel;html=1;align=center;verticalAlign=middle;resizable=0;points=[];fontSize=14;fontFamily=Comic Sans MS;" vertex="1" connectable="0" parent="ienhqepkz2iXpr1vj2_R-116">
          <mxGeometry x="-0.2286" y="-3" relative="1" as="geometry">
            <mxPoint as="offset" />
          </mxGeometry>
        </mxCell>
        <mxCell id="ienhqepkz2iXpr1vj2_R-114" value="记录活动与衍生课course_id关系" style="rounded=0;whiteSpace=wrap;html=1;fontFamily=Comic Sans MS;fontSize=14;" vertex="1" parent="1">
          <mxGeometry x="409" y="1965" width="120" height="50" as="geometry" />
        </mxCell>
        <mxCell id="ienhqepkz2iXpr1vj2_R-122" style="edgeStyle=orthogonalEdgeStyle;rounded=0;orthogonalLoop=1;jettySize=auto;html=1;exitX=0.5;exitY=1;exitDx=0;exitDy=0;entryX=0;entryY=0.5;entryDx=0;entryDy=0;fontFamily=Comic Sans MS;fontSize=14;" edge="1" parent="1" source="ienhqepkz2iXpr1vj2_R-115" target="ienhqepkz2iXpr1vj2_R-112">
          <mxGeometry relative="1" as="geometry" />
        </mxCell>
        <mxCell id="ienhqepkz2iXpr1vj2_R-123" value="insert success" style="edgeLabel;html=1;align=center;verticalAlign=middle;resizable=0;points=[];fontSize=14;fontFamily=Comic Sans MS;" vertex="1" connectable="0" parent="ienhqepkz2iXpr1vj2_R-122">
          <mxGeometry x="0.0384" relative="1" as="geometry">
            <mxPoint as="offset" />
          </mxGeometry>
        </mxCell>
        <mxCell id="ienhqepkz2iXpr1vj2_R-115" value="shixun_acty_course" style="shape=process;whiteSpace=wrap;html=1;backgroundOutline=1;fontFamily=Comic Sans MS;fontSize=14;" vertex="1" parent="1">
          <mxGeometry x="80" y="1960" width="189" height="60" as="geometry" />
        </mxCell>
      </root>
    </mxGraphModel>
  </diagram>
</mxfile>
